#tb 0: 1001/30000
0,          0,          0,        1,  1382400, 0xe1c2201d
0,          1,          1,        1,  1382400, 0x13e5bc81
0,          2,          2,        1,  1382400, 0x3062ca82
0,          3,          3,        1,  1382400, 0x1c71624f
0,          4,          4,        1,  1382400, 0xf286c080
0,          5,          5,        1,  1382400, 0xd517d824
0,          6,          6,        1,  1382400, 0xe571ffd5
0,          7,          7,        1,  1382400, 0x94a523ff
0,          8,          8,        1,  1382400, 0x85c58fca
0,          9,          9,        1,  1382400, 0x6b3278b0
